<?xml version="1.0" encoding="UTF-8" standalone="no"?>
<!-- Created with Inkscape (http://www.inkscape.org/) -->

<svg
   version="1.1"
   id="svg2"
   xml:space="preserve"
   width="1122.52"
   height="415.74799"
   viewBox="0 0 1122.52 415.74799"
   sodipodi:docname="geneial_logo-invert - updated.svg"
   inkscape:version="1.1.1 (3bf5ae0d25, 2021-09-20)"
   inkscape:export-filename="C:\Users\chris\Downloads\logo_suki-20211012T210137Z-001\logo_suki\final artwork GENEIAL\geneial_logo-invert - updated.png"
   inkscape:export-xdpi="800"
   inkscape:export-ydpi="800"
   xmlns:inkscape="http://www.inkscape.org/namespaces/inkscape"
   xmlns:sodipodi="http://sodipodi.sourceforge.net/DTD/sodipodi-0.dtd"
   xmlns="http://www.w3.org/2000/svg"
   xmlns:svg="http://www.w3.org/2000/svg"><defs
     id="defs6"><clipPath
       clipPathUnits="userSpaceOnUse"
       id="clipPath18"><path
         d="M 0,311.811 H 841.89 V 0 H 0 Z"
         id="path16" /></clipPath></defs><sodipodi:namedview
     id="namedview4"
     pagecolor="#ffffff"
     bordercolor="#999999"
     borderopacity="1"
     inkscape:pageshadow="0"
     inkscape:pageopacity="0"
     inkscape:pagecheckerboard="0"
     showgrid="false"
     inkscape:zoom="1.4440722"
     inkscape:cx="536.67675"
     inkscape:cy="207.74584"
     inkscape:window-width="1920"
     inkscape:window-height="986"
     inkscape:window-x="-11"
     inkscape:window-y="-11"
     inkscape:window-maximized="1"
     inkscape:current-layer="g8" /><g
     id="g8"
     inkscape:groupmode="layer"
     inkscape:label="geneial_logo-invert - updated"
     transform="matrix(1.3333333,0,0,-1.3333333,0,415.748)"><path
       d="M 0,0 H 841.89 V 311.811 H 0 Z"
       style="fill:#064442;fill-opacity:1;fill-rule:nonzero;stroke:none"
       id="path10" /><g
       id="g12"><g
         id="g14"
         clip-path="url(#clipPath18)"><g
           id="g20"
           transform="translate(761.6621,63.6286)"><path
             d="M 0,0 V 44.721 H 29.856 C 34.898,39.122 39.502,33.507 43.505,27.877 H 17.766 c -3.047,0 -5.518,-2.471 -5.518,-5.518 0,-3.047 2.471,-5.518 5.518,-5.518 h 31.978 c 0.256,0 0.5,0.042 0.747,0.076 C 53.618,11.29 56.026,5.65 57.534,0 Z M 0,74.326 C 6.689,68.162 13.229,61.971 19.393,55.757 H 0 Z m -18.671,71.536 h -36.191 c -0.156,0 -0.302,-0.034 -0.455,-0.046 -3.616,5.533 -6.377,10.865 -8.397,15.968 h 45.043 z m 0,-39.598 c -10.794,9.933 -20.709,19.493 -28.388,28.562 h 28.388 z M 0,89.277 V 203.265 H -18.671 V 172.82 h -48.405 c -1.215,5.66 -1.572,10.979 -1.292,15.92 h 30.906 c 3.047,0 5.517,2.47 5.517,5.518 0,3.047 -2.47,5.517 -5.517,5.517 h -29.215 c 1.588,6.171 4.046,11.513 6.653,15.923 h 48.078 c 3.048,0 5.518,2.471 5.518,5.518 0,3.047 -2.47,5.518 -5.518,5.518 h -39.89 c 1.829,1.982 3.155,3.152 3.44,3.397 2.32,1.967 2.608,5.445 0.644,7.767 -1.966,2.331 -5.453,2.619 -7.775,0.652 -16.685,-14.109 -39.842,-53.224 -8.067,-100.27 10.03,-14.85 26.778,-30.486 44.923,-46.961 V -11.035 H 0 9.487 59.246 c 0.261,-5.608 -0.479,-11.224 -2.38,-16.845 H 7.28 c -3.047,0 -5.517,-2.47 -5.517,-5.517 0,-3.048 2.47,-5.518 5.517,-5.518 h 44.315 c -1.525,-2.451 -3.248,-4.903 -5.273,-7.355 -1.94,-2.35 -1.608,-5.828 0.741,-7.768 1.029,-0.848 2.274,-1.263 3.51,-1.263 1.59,0 3.166,0.684 4.257,2.004 4.784,5.792 8.288,11.579 10.791,17.35 0.129,0.246 0.239,0.499 0.331,0.766 C 84.534,9.33 40.078,52.808 0,89.277"
             style="fill:#00acc1;fill-opacity:1;fill-rule:nonzero;stroke:none"
             id="path22" /></g><g
           id="g24"
           transform="translate(269.5002,116.1451)"><path
             d="M 0,0 C -1.864,20.969 -17.943,36.116 -37.749,36.116 -57.088,36.116 -72.932,21.203 -75.494,0 Z m -93.901,-7.223 c 0,32.853 24.698,59.182 57.085,59.182 30.291,0 54.291,-26.097 54.291,-58.484 0,-3.263 -0.466,-6.757 -0.466,-6.989 h -92.503 c 2.796,-22.602 20.271,-36.816 41.243,-36.816 12.813,0 25.63,4.426 34.949,12.115 l 7.689,-13.048 c -12.116,-9.553 -27.26,-14.912 -42.873,-14.912 -32.155,0 -59.415,23.068 -59.415,58.952"
             style="fill:#ffffff;fill-opacity:1;fill-rule:nonzero;stroke:none"
             id="path26" /></g><g
           id="g28"
           transform="translate(307.4859,165.775)"><path
             d="m 0,0 h 17.709 v -19.342 c 7.921,13.75 22.602,21.671 39.376,21.671 28.429,0 41.011,-17.241 41.011,-47.066 v -68.738 H 80.387 v 66.407 c 0,20.969 -7.689,32.156 -28.195,32.156 -20.271,0 -34.483,-15.845 -34.483,-34.718 v -63.845 H 0 Z"
             style="fill:#ffffff;fill-opacity:1;fill-rule:nonzero;stroke:none"
             id="path30" /></g><g
           id="g32"
           transform="translate(518.127,116.1451)"><path
             d="M 0,0 C -1.864,20.969 -17.941,36.116 -37.746,36.116 -57.088,36.116 -72.932,21.203 -75.494,0 Z m -93.901,-7.223 c 0,32.853 24.698,59.182 57.085,59.182 30.291,0 54.291,-26.097 54.291,-58.484 0,-3.263 -0.466,-6.757 -0.466,-6.989 h -92.503 c 2.796,-22.602 20.271,-36.816 41.243,-36.816 12.813,0 25.63,4.426 34.949,12.115 l 7.689,-13.048 c -12.116,-9.553 -27.26,-14.912 -42.873,-14.912 -32.155,0 -59.415,23.068 -59.415,58.952"
             style="fill:#ffffff;fill-opacity:1;fill-rule:nonzero;stroke:none"
             id="path34" /></g><path
           d="m 556.113,165.775 h 17.709 V 52.3 h -17.709 z m -2.797,31.921 c 0,6.525 5.127,11.884 11.65,11.884 6.525,0 11.884,-5.359 11.884,-11.884 0,-6.524 -5.359,-11.65 -11.884,-11.65 -6.523,0 -11.65,5.126 -11.65,11.65"
           style="fill:#ffffff;fill-opacity:1;fill-rule:nonzero;stroke:none"
           id="path36" /><g
           id="g38"
           transform="translate(690.5562,108.9219)"><path
             d="M 0,0 C 0,23.766 -17.009,41.941 -38.678,41.941 -61.28,41.941 -78.057,24.232 -78.057,0 c 0,-24 16.777,-41.709 39.379,-41.709 C -17.009,-41.709 0,-23.768 0,0 m -96.232,0 c 0,33.319 22.136,59.182 53.594,59.182 18.172,0 34.251,-7.456 42.638,-22.137 V 56.853 H 17.709 V -56.621 H 0 v 19.805 c -8.387,-14.913 -24.466,-22.136 -42.638,-22.136 -31.458,0 -53.594,26.096 -53.594,58.952"
             style="fill:#ffffff;fill-opacity:1;fill-rule:nonzero;stroke:none"
             id="path40" /></g><g
           id="g42"
           transform="translate(742.9913,52.3005)"><path
             d="M 0,0 H 18.671 V 85.654 L 0,102.647 Z"
             style="fill:#ffffff;fill-opacity:1;fill-rule:nonzero;stroke:none"
             id="path44" /></g><g
           id="g46"
           transform="translate(742.9913,266.8932)"><path
             d="m 0,0 v -97 l 18.671,-16.988 V 0 Z"
             style="fill:#ffffff;fill-opacity:1;fill-rule:nonzero;stroke:none"
             id="path48" /></g><g
           id="g50"
           transform="translate(89.6646,152.2609)"><path
             d="m 0,0 c -11.917,0 -21.578,-9.661 -21.578,-21.578 0,-11.917 9.661,-21.577 21.578,-21.577 9.137,0 16.929,5.688 20.076,13.709 h 36.285 c 4.361,0 7.896,3.534 7.896,7.895 0,4.361 -3.535,7.896 -7.896,7.896 H 20.056 C 16.896,-5.662 9.117,0 0,0"
             style="fill:#ffffff;fill-opacity:1;fill-rule:nonzero;stroke:none"
             id="path52" /></g><g
           id="g54"
           transform="translate(135.7461,90.7468)"><path
             d="m 0,0 c -10.486,-14.215 -27.494,-23.766 -47.068,-23.766 -33.785,0 -59.415,27.26 -59.415,60.814 0,33.552 25.63,60.815 59.415,60.815 16.311,0 29.825,-5.127 41.243,-15.379 L 5.359,95.299 c -14.212,12.582 -32.156,19.572 -52.427,19.572 -44.969,0 -78.757,-34.484 -78.757,-77.823 0,-43.339 33.788,-77.825 78.757,-77.825 27.495,0 51.263,13.048 65.243,34.02 V 22.087 L 0,22.087 Z"
             style="fill:#ffffff;fill-opacity:1;fill-rule:nonzero;stroke:none"
             id="path56" /></g></g></g><rect
       style="fill:#ffffff;stroke-width:0.75"
       id="rect160"
       width="18.671001"
       height="31.938"
       x="742.99109"
       y="-169.89261"
       transform="scale(1,-1)" /></g></svg>
